<mxfile host="app.diagrams.net" agent="Mozilla/5.0 (Windows NT 10.0; Win64; x64) AppleWebKit/537.36 (KHTML, like Gecko) Chrome/138.0.0.0 Safari/537.36" version="27.1.6">
  <diagram name="Página-1" id="mAxOSAa3N8XcfA-sEJye">
    <mxGraphModel grid="1" page="1" gridSize="10" guides="1" tooltips="1" connect="1" arrows="1" fold="1" pageScale="1" pageWidth="827" pageHeight="1169" math="0" shadow="0">
      <root>
        <mxCell id="0" />
        <mxCell id="1" parent="0" />
        <mxCell id="qbiz0Fr2gtufdMoq4hrP-1" value="CU033 Cambio de Contraseña" style="swimlane;childLayout=stackLayout;resizeParent=1;resizeParentMax=0;startSize=20;horizontal=0;horizontalStack=1;" vertex="1" parent="1">
          <mxGeometry x="170" y="70" width="795" height="640" as="geometry">
            <mxRectangle x="200" y="80" width="40" height="50" as="alternateBounds" />
          </mxGeometry>
        </mxCell>
        <mxCell id="qbiz0Fr2gtufdMoq4hrP-2" style="edgeStyle=orthogonalEdgeStyle;rounded=0;orthogonalLoop=1;jettySize=auto;html=1;exitX=1;exitY=0.5;exitDx=0;exitDy=0;" edge="1" parent="qbiz0Fr2gtufdMoq4hrP-1" source="qbiz0Fr2gtufdMoq4hrP-6" target="qbiz0Fr2gtufdMoq4hrP-18">
          <mxGeometry relative="1" as="geometry" />
        </mxCell>
        <mxCell id="qbiz0Fr2gtufdMoq4hrP-3" style="edgeStyle=orthogonalEdgeStyle;rounded=0;orthogonalLoop=1;jettySize=auto;html=1;exitX=0.5;exitY=1;exitDx=0;exitDy=0;entryX=1;entryY=0.5;entryDx=0;entryDy=0;" edge="1" parent="qbiz0Fr2gtufdMoq4hrP-1" source="qbiz0Fr2gtufdMoq4hrP-18" target="qbiz0Fr2gtufdMoq4hrP-8">
          <mxGeometry relative="1" as="geometry" />
        </mxCell>
        <mxCell id="qbiz0Fr2gtufdMoq4hrP-4" value="Usuario" style="swimlane;startSize=20;" vertex="1" parent="qbiz0Fr2gtufdMoq4hrP-1">
          <mxGeometry x="20" width="335" height="640" as="geometry" />
        </mxCell>
        <mxCell id="qbiz0Fr2gtufdMoq4hrP-5" value="" style="ellipse;html=1;shape=startState;fillColor=#000000;strokeColor=#ff0000;fillStyle=auto;" vertex="1" parent="qbiz0Fr2gtufdMoq4hrP-4">
          <mxGeometry x="160" y="30" width="30" height="30" as="geometry" />
        </mxCell>
        <mxCell id="qbiz0Fr2gtufdMoq4hrP-6" value="&lt;font style=&quot;vertical-align: inherit;&quot;&gt;&lt;font style=&quot;vertical-align: inherit;&quot;&gt;&lt;font style=&quot;vertical-align: inherit;&quot;&gt;&lt;font style=&quot;vertical-align: inherit;&quot;&gt;&lt;font style=&quot;vertical-align: inherit;&quot;&gt;&lt;font style=&quot;vertical-align: inherit;&quot;&gt;Pulsar apartado &quot;Perfil&quot;&lt;/font&gt;&lt;/font&gt;&lt;/font&gt;&lt;/font&gt;&lt;/font&gt;&lt;/font&gt;" style="rounded=1;whiteSpace=wrap;html=1;arcSize=40;fontColor=#000000;fillColor=#ffffc0;strokeColor=#ff0000;" vertex="1" parent="qbiz0Fr2gtufdMoq4hrP-4">
          <mxGeometry x="70" y="90" width="210" height="50" as="geometry" />
        </mxCell>
        <mxCell id="qbiz0Fr2gtufdMoq4hrP-7" value="" style="edgeStyle=orthogonalEdgeStyle;html=1;verticalAlign=bottom;endArrow=open;endSize=8;strokeColor=#ff0000;rounded=0;entryX=0.5;entryY=0;entryDx=0;entryDy=0;" edge="1" parent="qbiz0Fr2gtufdMoq4hrP-4" source="qbiz0Fr2gtufdMoq4hrP-5" target="qbiz0Fr2gtufdMoq4hrP-6">
          <mxGeometry relative="1" as="geometry">
            <mxPoint x="60" y="100" as="targetPoint" />
          </mxGeometry>
        </mxCell>
        <mxCell id="qbiz0Fr2gtufdMoq4hrP-8" value="&lt;font style=&quot;vertical-align: inherit;&quot;&gt;&lt;font style=&quot;vertical-align: inherit;&quot;&gt;Botón &quot;Cambiar contraseña&quot;&lt;/font&gt;&lt;/font&gt;" style="rounded=1;whiteSpace=wrap;html=1;arcSize=40;fontColor=#000000;fillColor=#ffffc0;strokeColor=#ff0000;" vertex="1" parent="qbiz0Fr2gtufdMoq4hrP-4">
          <mxGeometry x="115" y="150" width="120" height="50" as="geometry" />
        </mxCell>
        <mxCell id="qbiz0Fr2gtufdMoq4hrP-10" value="&lt;font style=&quot;vertical-align: inherit;&quot;&gt;&lt;font style=&quot;vertical-align: inherit;&quot;&gt;Pulsar el botón confirmar contraseña&lt;/font&gt;&lt;/font&gt;" style="rounded=1;whiteSpace=wrap;html=1;arcSize=40;fontColor=#000000;fillColor=#ffffc0;strokeColor=#ff0000;" vertex="1" parent="qbiz0Fr2gtufdMoq4hrP-4">
          <mxGeometry x="60" y="480" width="120" height="50" as="geometry" />
        </mxCell>
        <mxCell id="qbiz0Fr2gtufdMoq4hrP-36" style="edgeStyle=orthogonalEdgeStyle;rounded=0;orthogonalLoop=1;jettySize=auto;html=1;exitX=0.5;exitY=1;exitDx=0;exitDy=0;entryX=0.25;entryY=0;entryDx=0;entryDy=0;" edge="1" parent="qbiz0Fr2gtufdMoq4hrP-4" source="qbiz0Fr2gtufdMoq4hrP-11" target="qbiz0Fr2gtufdMoq4hrP-10">
          <mxGeometry relative="1" as="geometry" />
        </mxCell>
        <mxCell id="qbiz0Fr2gtufdMoq4hrP-11" value="&lt;font style=&quot;vertical-align: inherit;&quot;&gt;&lt;font style=&quot;vertical-align: inherit;&quot;&gt;llenar formulario&lt;/font&gt;&lt;/font&gt;" style="rounded=1;whiteSpace=wrap;html=1;arcSize=40;fontColor=#000000;fillColor=#ffffc0;strokeColor=#ff0000;" vertex="1" parent="qbiz0Fr2gtufdMoq4hrP-4">
          <mxGeometry x="30" y="310" width="120" height="50" as="geometry" />
        </mxCell>
        <mxCell id="qbiz0Fr2gtufdMoq4hrP-26" style="edgeStyle=orthogonalEdgeStyle;rounded=0;orthogonalLoop=1;jettySize=auto;html=1;entryX=1;entryY=0.5;entryDx=0;entryDy=0;" edge="1" parent="qbiz0Fr2gtufdMoq4hrP-1" target="qbiz0Fr2gtufdMoq4hrP-30">
          <mxGeometry relative="1" as="geometry">
            <mxPoint x="555" y="275" as="sourcePoint" />
            <Array as="points">
              <mxPoint x="540" y="275" />
              <mxPoint x="540" y="335" />
            </Array>
          </mxGeometry>
        </mxCell>
        <mxCell id="qbiz0Fr2gtufdMoq4hrP-28" style="edgeStyle=orthogonalEdgeStyle;rounded=0;orthogonalLoop=1;jettySize=auto;html=1;exitX=0.5;exitY=1;exitDx=0;exitDy=0;entryX=0.5;entryY=0;entryDx=0;entryDy=0;" edge="1" parent="qbiz0Fr2gtufdMoq4hrP-1" source="qbiz0Fr2gtufdMoq4hrP-27" target="qbiz0Fr2gtufdMoq4hrP-11">
          <mxGeometry relative="1" as="geometry">
            <Array as="points">
              <mxPoint x="465" y="260" />
              <mxPoint x="110" y="260" />
            </Array>
          </mxGeometry>
        </mxCell>
        <mxCell id="qbiz0Fr2gtufdMoq4hrP-9" style="edgeStyle=orthogonalEdgeStyle;rounded=0;orthogonalLoop=1;jettySize=auto;html=1;exitX=0.5;exitY=1;exitDx=0;exitDy=0;strokeColor=#FF0303;entryX=0;entryY=0.5;entryDx=0;entryDy=0;" edge="1" parent="qbiz0Fr2gtufdMoq4hrP-1" source="qbiz0Fr2gtufdMoq4hrP-8" target="qbiz0Fr2gtufdMoq4hrP-27">
          <mxGeometry relative="1" as="geometry">
            <mxPoint x="200" y="230" as="targetPoint" />
          </mxGeometry>
        </mxCell>
        <mxCell id="qbiz0Fr2gtufdMoq4hrP-15" value="Sistema" style="swimlane;startSize=20;" vertex="1" parent="qbiz0Fr2gtufdMoq4hrP-1">
          <mxGeometry x="355" width="440" height="640" as="geometry" />
        </mxCell>
        <mxCell id="qbiz0Fr2gtufdMoq4hrP-16" value="" style="ellipse;html=1;shape=endState;fillColor=#000000;strokeColor=#ff0000;" vertex="1" parent="qbiz0Fr2gtufdMoq4hrP-15">
          <mxGeometry x="330" y="560" width="30" height="30" as="geometry" />
        </mxCell>
        <mxCell id="qbiz0Fr2gtufdMoq4hrP-17" style="edgeStyle=orthogonalEdgeStyle;rounded=0;orthogonalLoop=1;jettySize=auto;html=1;exitX=0.5;exitY=1;exitDx=0;exitDy=0;" edge="1" parent="qbiz0Fr2gtufdMoq4hrP-15">
          <mxGeometry relative="1" as="geometry">
            <mxPoint x="86" y="360" as="sourcePoint" />
            <mxPoint x="86" y="360" as="targetPoint" />
          </mxGeometry>
        </mxCell>
        <mxCell id="qbiz0Fr2gtufdMoq4hrP-18" value="&lt;font style=&quot;vertical-align: inherit;&quot;&gt;&lt;font style=&quot;vertical-align: inherit;&quot;&gt;&lt;font style=&quot;vertical-align: inherit;&quot;&gt;&lt;font style=&quot;vertical-align: inherit;&quot;&gt;Mostrar apartado perfil&lt;/font&gt;&lt;/font&gt;&lt;/font&gt;&lt;/font&gt;" style="rounded=1;whiteSpace=wrap;html=1;arcSize=40;fontColor=#000000;fillColor=#ffffc0;strokeColor=#ff0000;" vertex="1" parent="qbiz0Fr2gtufdMoq4hrP-15">
          <mxGeometry x="210" y="90" width="120" height="50" as="geometry" />
        </mxCell>
        <mxCell id="qbiz0Fr2gtufdMoq4hrP-19" value="&lt;font style=&quot;vertical-align: inherit;&quot;&gt;&lt;font style=&quot;vertical-align: inherit;&quot;&gt;&lt;font style=&quot;vertical-align: inherit;&quot;&gt;&lt;font style=&quot;vertical-align: inherit;&quot;&gt;Datos válidos&lt;/font&gt;&lt;/font&gt;&lt;/font&gt;&lt;/font&gt;" style="rhombus;whiteSpace=wrap;html=1;fillColor=#fff2cc;strokeColor=#d6b656;" vertex="1" parent="qbiz0Fr2gtufdMoq4hrP-15">
          <mxGeometry x="200" y="226.57" width="100" height="96.86" as="geometry" />
        </mxCell>
        <mxCell id="qbiz0Fr2gtufdMoq4hrP-20" value="si" style="text;html=1;align=center;verticalAlign=middle;resizable=0;points=[];autosize=1;strokeColor=none;fillColor=none;" vertex="1" parent="qbiz0Fr2gtufdMoq4hrP-15">
          <mxGeometry x="300" y="240" width="30" height="30" as="geometry" />
        </mxCell>
        <mxCell id="qbiz0Fr2gtufdMoq4hrP-21" value="Mostrar mensaje de éxito" style="rounded=1;whiteSpace=wrap;html=1;arcSize=40;fontColor=#000000;fillColor=#ffffc0;strokeColor=#ff0000;" vertex="1" parent="qbiz0Fr2gtufdMoq4hrP-15">
          <mxGeometry x="285" y="460" width="120" height="50" as="geometry" />
        </mxCell>
        <mxCell id="qbiz0Fr2gtufdMoq4hrP-22" style="edgeStyle=orthogonalEdgeStyle;rounded=0;orthogonalLoop=1;jettySize=auto;html=1;exitX=0.5;exitY=1;exitDx=0;exitDy=0;entryX=0.5;entryY=0;entryDx=0;entryDy=0;" edge="1" parent="qbiz0Fr2gtufdMoq4hrP-15" source="qbiz0Fr2gtufdMoq4hrP-21" target="qbiz0Fr2gtufdMoq4hrP-16">
          <mxGeometry relative="1" as="geometry" />
        </mxCell>
        <mxCell id="qbiz0Fr2gtufdMoq4hrP-24" style="edgeStyle=orthogonalEdgeStyle;rounded=0;orthogonalLoop=1;jettySize=auto;html=1;exitX=1;exitY=0.5;exitDx=0;exitDy=0;entryX=0;entryY=0.5;entryDx=0;entryDy=0;" edge="1" parent="qbiz0Fr2gtufdMoq4hrP-15" source="qbiz0Fr2gtufdMoq4hrP-25" target="qbiz0Fr2gtufdMoq4hrP-21">
          <mxGeometry relative="1" as="geometry" />
        </mxCell>
        <mxCell id="qbiz0Fr2gtufdMoq4hrP-25" value="Cambios guardados" style="rounded=1;whiteSpace=wrap;html=1;arcSize=40;fontColor=#000000;fillColor=#ffffc0;strokeColor=#ff0000;" vertex="1" parent="qbiz0Fr2gtufdMoq4hrP-15">
          <mxGeometry x="70" y="460" width="120" height="50" as="geometry" />
        </mxCell>
        <mxCell id="qbiz0Fr2gtufdMoq4hrP-27" value="&lt;font style=&quot;vertical-align: inherit;&quot;&gt;&lt;font style=&quot;vertical-align: inherit;&quot;&gt;&lt;font style=&quot;vertical-align: inherit;&quot;&gt;&lt;font style=&quot;vertical-align: inherit;&quot;&gt;Mostrar formulario&lt;/font&gt;&lt;/font&gt;&lt;/font&gt;&lt;/font&gt;" style="rounded=1;whiteSpace=wrap;html=1;arcSize=40;fontColor=#000000;fillColor=#ffffc0;strokeColor=#ff0000;" vertex="1" parent="qbiz0Fr2gtufdMoq4hrP-15">
          <mxGeometry x="50" y="205" width="120" height="50" as="geometry" />
        </mxCell>
        <mxCell id="qbiz0Fr2gtufdMoq4hrP-30" value="&lt;font style=&quot;vertical-align: inherit;&quot;&gt;&lt;font style=&quot;vertical-align: inherit;&quot;&gt;&lt;font style=&quot;vertical-align: inherit;&quot;&gt;&lt;font style=&quot;vertical-align: inherit;&quot;&gt;&lt;font style=&quot;vertical-align: inherit;&quot;&gt;&lt;font style=&quot;vertical-align: inherit;&quot;&gt;&lt;font style=&quot;vertical-align: inherit;&quot;&gt;&lt;font style=&quot;vertical-align: inherit;&quot;&gt;Mostrar mensaje de error&lt;/font&gt;&lt;/font&gt;&lt;/font&gt;&lt;/font&gt;&lt;/font&gt;&lt;/font&gt;&lt;/font&gt;&lt;/font&gt;" style="rounded=1;whiteSpace=wrap;html=1;arcSize=40;fontColor=#000000;fillColor=#ffffc0;strokeColor=#ff0000;" vertex="1" parent="qbiz0Fr2gtufdMoq4hrP-15">
          <mxGeometry y="310" width="120" height="50" as="geometry" />
        </mxCell>
        <mxCell id="qbiz0Fr2gtufdMoq4hrP-13" style="edgeStyle=orthogonalEdgeStyle;rounded=0;orthogonalLoop=1;jettySize=auto;html=1;exitX=1;exitY=0.5;exitDx=0;exitDy=0;entryX=0.5;entryY=0;entryDx=0;entryDy=0;" edge="1" parent="qbiz0Fr2gtufdMoq4hrP-15" source="qbiz0Fr2gtufdMoq4hrP-19" target="qbiz0Fr2gtufdMoq4hrP-25">
          <mxGeometry relative="1" as="geometry">
            <Array as="points">
              <mxPoint x="320" y="275" />
              <mxPoint x="320" y="410" />
              <mxPoint x="145" y="410" />
              <mxPoint x="145" y="460" />
            </Array>
          </mxGeometry>
        </mxCell>
        <mxCell id="qbiz0Fr2gtufdMoq4hrP-32" value="&lt;br&gt;&lt;div&gt;&lt;font style=&quot;vertical-align: inherit;&quot;&gt;&lt;font style=&quot;vertical-align: inherit;&quot;&gt;no&lt;/font&gt;&lt;/font&gt;&lt;/div&gt;" style="text;html=1;align=center;verticalAlign=middle;resizable=0;points=[];autosize=1;strokeColor=none;fillColor=none;" vertex="1" parent="qbiz0Fr2gtufdMoq4hrP-15">
          <mxGeometry x="160" y="255" width="40" height="40" as="geometry" />
        </mxCell>
        <mxCell id="qbiz0Fr2gtufdMoq4hrP-37" style="edgeStyle=orthogonalEdgeStyle;rounded=0;orthogonalLoop=1;jettySize=auto;html=1;exitX=1;exitY=0.5;exitDx=0;exitDy=0;entryX=0.5;entryY=1;entryDx=0;entryDy=0;" edge="1" parent="qbiz0Fr2gtufdMoq4hrP-1" source="qbiz0Fr2gtufdMoq4hrP-10" target="qbiz0Fr2gtufdMoq4hrP-19">
          <mxGeometry relative="1" as="geometry">
            <Array as="points">
              <mxPoint x="230" y="380" />
              <mxPoint x="605" y="380" />
            </Array>
          </mxGeometry>
        </mxCell>
        <mxCell id="uSyxhRmgt23L_qaHNecQ-1" style="edgeStyle=orthogonalEdgeStyle;rounded=0;orthogonalLoop=1;jettySize=auto;html=1;entryX=1;entryY=0.5;entryDx=0;entryDy=0;" edge="1" parent="qbiz0Fr2gtufdMoq4hrP-1" source="qbiz0Fr2gtufdMoq4hrP-30" target="qbiz0Fr2gtufdMoq4hrP-11">
          <mxGeometry relative="1" as="geometry" />
        </mxCell>
      </root>
    </mxGraphModel>
  </diagram>
</mxfile>
